<svg width="81" height="81" viewBox="0 0 81 81" fill="none" xmlns="http://www.w3.org/2000/svg">
<path d="M40.13 80.13C18.0758 80.13 0.130005 62.1843 0.130005 40.13C0.130005 18.0758 18.0758 0.130005 40.13 0.130005C62.1843 0.130005 80.13 18.0758 80.13 40.13C80.13 62.1843 62.1843 80.13 40.13 80.13ZM40.13 9.40429C23.1859 9.40429 9.40429 23.1859 9.40429 40.13C9.40429 57.0741 23.1859 70.8557 40.13 70.8557C57.0741 70.8557 70.8557 57.0741 70.8557 40.13C70.8557 23.1859 57.0741 9.40429 40.13 9.40429Z" fill="#DEFF4F"/>
<path d="M35.3259 13.5963C36.5687 14.0693 36.8005 15.1914 37.088 16.2951C37.7651 18.929 39.0356 21.2568 40.7792 23.3435C42.6248 25.5601 44.8599 27.2666 47.5031 28.398C48.7087 28.9174 49.9793 29.2791 51.2499 29.6593C52.1217 29.919 52.8172 30.6239 52.808 31.4678C52.808 32.4416 52.2144 33.2114 51.287 33.4154C48.5047 34.0275 45.9728 35.1497 43.7192 36.8655C42.1703 38.0526 40.8441 39.4715 39.7127 41.076C38.2473 43.1441 37.3663 45.4627 36.7449 47.9019C36.5223 48.7644 35.8731 49.3765 35.1219 49.3857C33.9719 49.4043 33.2114 48.9313 32.9981 47.9761C32.4231 45.2865 31.3473 42.8288 29.6964 40.6215C28.7412 39.351 27.6654 38.2195 26.4133 37.2179C24.5214 35.6969 22.4347 34.584 20.1254 33.8884C19.6246 33.74 19.1145 33.6009 18.6044 33.4525C17.5564 33.1279 16.8515 32.3025 16.8979 31.4585C16.9443 30.5497 17.6677 29.7984 18.7528 29.5666C21.0713 29.0658 23.1952 28.1198 25.1428 26.7843C28.3053 24.6141 30.6702 21.7855 32.0336 18.1685C32.3582 17.306 32.6086 16.4157 32.8497 15.5253C33.1001 14.6164 33.5174 13.8838 34.5005 13.6148H35.3259V13.5963Z" fill="white"/>
<path d="M75.7989 45.8522C75.5485 46.1954 75.3445 46.5942 75.0384 46.8724C74.7416 47.1414 74.3614 47.3825 73.9719 47.4752C71.9965 47.939 70.2529 48.7829 68.7226 50.1462C66.8214 51.8342 65.5879 53.8838 65.0129 56.3507C64.744 57.4822 63.9649 58.187 62.9911 58.1778C62.0822 58.1685 61.3403 57.5471 61.127 56.629C60.5984 54.3382 59.5596 52.3071 57.8717 50.6563C56.2394 49.0519 54.3011 47.9575 52.0382 47.5123C50.8233 47.2712 49.6918 45.6575 50.814 44.3498C51.0829 44.0438 51.4817 43.747 51.8713 43.6635C54.4866 43.0885 56.6568 41.7901 58.4282 39.8147C59.8008 38.2844 60.6633 36.4759 61.127 34.482C61.3496 33.5174 61.971 32.961 62.8335 32.961C64.0298 32.961 64.6234 33.3969 64.8738 34.4449C65.5045 37.0138 66.7565 39.2304 68.7505 40.9925C70.2158 42.2816 71.9223 43.1905 73.8235 43.6079C74.8993 43.8397 75.4187 44.4889 75.7804 45.3978V45.8708L75.7989 45.8522Z" fill="white"/>
<path d="M39.3046 53.2438C40.3526 53.2438 40.9369 53.6797 41.2058 54.6906C41.651 56.3322 42.3651 57.8439 43.5615 59.0495C44.628 60.1254 45.8893 60.923 47.3732 61.331C48.0873 61.5258 48.8478 61.6742 49.2745 62.3605C50.0535 63.6032 49.3115 64.9851 48.0317 65.3004C46.3716 65.7085 44.8692 66.4226 43.6728 67.6283C42.4857 68.8061 41.6788 70.2529 41.3078 71.913C41.0853 72.9239 40.2413 73.6565 39.3231 73.6565C38.405 73.6565 37.6723 73.0352 37.4312 72.0614C37.0138 70.3178 36.207 68.7783 34.8808 67.5541C33.6751 66.4319 32.2561 65.727 30.661 65.319C29.6222 65.0593 29.0936 64.3452 29.0936 63.4085C29.0936 62.5738 29.6315 61.7947 30.4476 61.5814C31.7182 61.2383 32.9424 60.7838 33.9997 59.9955C35.7804 58.6693 36.9211 56.9072 37.4405 54.737C37.6445 53.8838 38.2102 53.1233 39.2953 53.2531L39.3046 53.2438Z" fill="white"/>
<path d="M31.2452 55.5717L64.8738 21.9431C65.9496 23.4085 66.8956 24.9758 67.7025 26.6266C68.3331 23.9093 68.463 21.5351 67.4799 20.385C64.3544 16.7032 67.8508 16.156 62.5089 13.9394C57.1669 11.7321 59.1979 10.443 55.7015 11.5467C55.1172 11.7321 54.3475 12.0567 53.4757 12.4741C55.1822 13.2995 56.8052 14.2733 58.3169 15.3862L15.3862 58.3169C13.6426 55.9519 12.2515 53.318 11.2406 50.5079C10.9624 50.9624 10.7491 51.389 10.6099 51.7971C9.32082 55.7108 8.0317 65.1057 13.7354 66.7565C19.4391 68.4166 21.2847 71.644 24.4101 70.8557C25.5694 70.5682 27.6746 69.9561 30.0581 69.1307C27.1275 68.1198 24.3915 66.6823 21.9339 64.8738L31.236 55.5717H31.2452Z" fill="#DEFF4F"/>
</svg>
