<svg width="38" height="38" viewBox="0 0 38 38" fill="none" xmlns="http://www.w3.org/2000/svg">
<path id="W" d="M31.92 5.44C30.16 3.68 28.1467 2.33333 25.88 1.4C23.64 0.466666 21.2667 0 18.76 0C15.4 0 12.28 0.853333 9.4 2.56C6.57333 4.18667 4.34667 6.41333 2.72 9.24C1.01333 12.12 0.16 15.24 0.16 18.6C0.16 21.88 0.986667 24.9733 2.64 27.88L0 37.52L9.88 34.96C12.6267 36.4533 15.5867 37.2 18.76 37.2C22.12 37.2 25.2533 36.36 28.16 34.68C30.96 33.0267 33.1867 30.8 34.84 28C36.52 25.0933 37.36 21.96 37.36 18.6C37.36 16.12 36.8933 13.7467 35.96 11.48C35.0267 9.21333 33.68 7.2 31.92 5.44ZM18.76 34.08C15.9867 34.08 13.36 33.36 10.88 31.92L10.32 31.6L4.48 33.12L6.04 27.4L5.68 26.84C4.10667 24.3333 3.32 21.5867 3.32 18.6C3.32 15.8 4.02667 13.2 5.44 10.8C6.8 8.45333 8.64 6.6 10.96 5.24C13.36 3.82667 15.96 3.12 18.76 3.12C20.84 3.14667 22.8133 3.54667 24.68 4.32C26.5733 5.09333 28.2533 6.21333 29.72 7.68C31.1867 9.14667 32.3067 10.8267 33.08 12.72C33.8533 14.5867 34.24 16.5467 34.24 18.6C34.24 21.4 33.5333 24 32.12 26.4C30.76 28.7467 28.9067 30.6 26.56 31.96C24.16 33.3733 21.56 34.08 18.76 34.08ZM27.24 22.48C26.9733 22.3467 26.4533 22.08 25.68 21.68C24.8267 21.28 24.2933 21.04 24.08 20.96C23.8133 20.88 23.6267 20.8533 23.52 20.88C23.3333 20.9067 23.1733 21.0133 23.04 21.2C22.7733 21.6267 22.28 22.24 21.56 23.04C21.4267 23.2 21.28 23.2933 21.12 23.32C20.96 23.32 20.7733 23.2667 20.56 23.16L20.24 23C18.96 22.44 17.8133 21.72 16.8 20.84C15.9467 20.0667 15.1067 19.0267 14.28 17.72L14.24 17.64C14.1333 17.4533 14.1067 17.28 14.16 17.12C14.1867 17.0133 14.2667 16.8933 14.4 16.76L14.8 16.2C15.2533 15.6133 15.52 15.24 15.6 15.08C15.7333 14.84 15.72 14.5733 15.56 14.28L14.12 10.84C13.9867 10.4667 13.8267 10.2267 13.64 10.12C13.5333 10.0667 13.3733 10.04 13.16 10.04H13.08C12.8933 10.0133 12.6 10 12.2 10C11.72 10 11.3067 10.2 10.96 10.6L10.92 10.64C10.4933 11.0667 10.1733 11.48 9.96 11.88C9.53333 12.6533 9.32 13.52 9.32 14.48C9.32 15.8667 9.90667 17.4133 11.08 19.12L11.28 19.4C12.0533 20.4933 12.8933 21.5067 13.8 22.44C15.5067 24.2 17.2933 25.48 19.16 26.28C19.8 26.5467 20.5867 26.8533 21.52 27.2L21.8 27.28C22.6533 27.5467 23.6267 27.6 24.72 27.44C25.2267 27.36 25.8133 27.1067 26.48 26.68C27.2267 26.2267 27.6933 25.76 27.88 25.28C28.0667 24.7733 28.1733 24.28 28.2 23.8C28.2533 23.4 28.24 23.1467 28.16 23.04C28.1067 22.9333 27.8933 22.7867 27.52 22.6L27.24 22.48Z" fill="#deff4e"/>
</svg>
