<svg width="30" height="32" viewBox="0 0 30 32" fill="none" xmlns="http://www.w3.org/2000/svg">
<path d="M25.6481 5.344C27.0561 6.752 28.1334 8.36267 28.8801 10.176C29.6267 11.9893 30.0001 13.888 30.0001 15.872C30.0001 18.56 29.3281 21.0667 27.9841 23.392C26.6614 25.632 24.8801 27.4133 22.6401 28.736C20.3147 30.08 17.8081 30.752 15.1201 30.752C12.5814 30.752 10.2134 30.1547 8.01606 28.96L0.112061 31.008L2.22406 23.296C0.901394 20.9707 0.240061 18.496 0.240061 15.872C0.240061 13.184 0.922727 10.688 2.28806 8.384C3.58939 6.12267 5.37073 4.34133 7.63206 3.04C9.93606 1.67467 12.4321 0.992001 15.1201 0.992001C17.1254 0.992001 19.0241 1.36533 20.8161 2.112C22.6294 2.85867 24.2401 3.936 25.6481 5.344ZM15.1201 28.256C17.3601 28.256 19.4401 27.6907 21.3601 26.56C23.2374 25.472 24.7201 23.9893 25.8081 22.112C26.9387 20.192 27.5041 18.112 27.5041 15.872C27.5041 14.2293 27.1947 12.6613 26.5761 11.168C25.9574 9.65333 25.0614 8.30933 23.8881 7.136C22.7147 5.96267 21.3707 5.06667 19.8561 4.448C18.3627 3.82933 16.7841 3.50933 15.1201 3.488C12.8801 3.488 10.8001 4.05333 8.88006 5.184C7.02406 6.272 5.55206 7.75467 4.46406 9.632C3.33339 11.552 2.76806 13.632 2.76806 15.872C2.76806 18.2613 3.39739 20.4587 4.65606 22.464L4.94406 22.912L3.69606 27.488L8.36806 26.272L8.81606 26.528C10.8001 27.68 12.9014 28.256 15.1201 28.256ZM21.9041 18.976L22.1281 19.072C22.4267 19.2213 22.5974 19.3387 22.6401 19.424C22.7041 19.5093 22.7147 19.712 22.6721 20.032C22.6507 20.416 22.5654 20.8107 22.4161 21.216C22.2667 21.6 21.8934 21.9733 21.2961 22.336C20.7627 22.6773 20.2934 22.88 19.8881 22.944C19.0134 23.072 18.2347 23.0293 17.5521 22.816L17.3281 22.752C16.5814 22.4747 15.9521 22.2293 15.4401 22.016C13.9467 21.376 12.5174 20.352 11.1521 18.944C10.4267 18.1973 9.75473 17.3867 9.13606 16.512L8.97606 16.288C8.03739 14.9227 7.56806 13.6853 7.56806 12.576C7.56806 11.808 7.73873 11.1147 8.08006 10.496C8.25073 10.176 8.50673 9.84533 8.84806 9.504L8.88006 9.472C9.15739 9.152 9.48806 8.992 9.87206 8.992C10.1921 8.992 10.4267 9.00267 10.5761 9.024H10.6401C10.8107 9.024 10.9387 9.04533 11.0241 9.088C11.1734 9.17333 11.3014 9.36533 11.4081 9.664L12.5601 12.416C12.6881 12.6507 12.6987 12.864 12.5921 13.056C12.5281 13.184 12.3147 13.4827 11.9521 13.952L11.6321 14.4C11.5254 14.5067 11.4614 14.6027 11.4401 14.688C11.3974 14.816 11.4187 14.9547 11.5041 15.104L11.5361 15.168C12.1974 16.2133 12.8694 17.0453 13.5521 17.664C14.3627 18.368 15.2801 18.944 16.3041 19.392L16.5601 19.52C16.7307 19.6053 16.8801 19.648 17.0081 19.648C17.1361 19.6267 17.2534 19.552 17.3601 19.424C17.9361 18.784 18.3307 18.2933 18.5441 17.952C18.6507 17.8027 18.7787 17.7173 18.9281 17.696C19.0134 17.6747 19.1627 17.696 19.3761 17.76C19.5467 17.824 19.9734 18.016 20.6561 18.336C21.2747 18.656 21.6907 18.8693 21.9041 18.976Z" fill="#0F93FE"/>
</svg>
