<svg width="88" height="87" viewBox="0 0 88 87" fill="none" xmlns="http://www.w3.org/2000/svg">
<path d="M53.89 61.69C53.54 61.69 53.19 61.5 53.01 61.17L43.38 43.48L43 22.59C43 22.04 43.43 21.58 43.98 21.57H44C44.54 21.57 44.99 22.01 45 22.55L45.37 42.95L54.76 60.21C55.02 60.69 54.84 61.3 54.36 61.57C54.21 61.65 54.04 61.69 53.88 61.69H53.89Z" fill="white"/>
<path d="M44 86.26C20.22 86.26 0.869995 66.91 0.869995 43.13C0.869995 19.35 20.22 0 44 0C67.78 0 87.13 19.35 87.13 43.13C87.13 66.91 67.78 86.26 44 86.26ZM44 10C25.73 10 10.87 24.86 10.87 43.13C10.87 61.4 25.73 76.26 44 76.26C62.27 76.26 77.13 61.4 77.13 43.13C77.13 24.86 62.27 10 44 10Z" fill="#DEFF4F"/>
<path d="M13.06 38.13C10.3 38.13 8.06 40.37 8.06 43.13C8.06 45.89 10.3 48.13 13.06 48.13C15.82 48.13 18.06 45.89 18.06 43.13C18.06 40.37 15.82 38.13 13.06 38.13Z" fill="white"/>
<path d="M44 39.4C41.94 39.4 40.27 41.07 40.27 43.13C40.27 45.19 41.94 46.86 44 46.86C46.06 46.86 47.73 45.19 47.73 43.13C47.73 41.07 46.06 39.4 44 39.4Z" fill="#DEFF4F"/>
<path d="M74.94 38.13C72.18 38.13 69.94 40.37 69.94 43.13C69.94 45.89 72.18 48.13 74.94 48.13C77.7 48.13 79.94 45.89 79.94 43.13C79.94 40.37 77.7 38.13 74.94 38.13Z" fill="white"/>
<path d="M44 17.19C46.7614 17.19 49 14.9514 49 12.19C49 9.42858 46.7614 7.19 44 7.19C41.2386 7.19 39 9.42858 39 12.19C39 14.9514 41.2386 17.19 44 17.19Z" fill="white"/>
<path d="M44 79.07C46.7614 79.07 49 76.8314 49 74.07C49 71.3086 46.7614 69.07 44 69.07C41.2386 69.07 39 71.3086 39 74.07C39 76.8314 41.2386 79.07 44 79.07Z" fill="white"/>
</svg>
