<svg width="81" height="81" viewBox="0 0 81 81" fill="none" xmlns="http://www.w3.org/2000/svg">
<path d="M40.13 0.130005C18.0758 0.130005 0.130005 18.0758 0.130005 40.13C0.130005 62.1843 18.0758 80.13 40.13 80.13C62.1843 80.13 80.13 62.1843 80.13 40.13C80.13 18.0758 62.1843 0.130005 40.13 0.130005ZM9.69179 44.1643C8.16154 43.6542 7.00225 42.2631 6.81677 40.6308C6.64983 39.1655 7.21556 37.7651 8.38412 36.8098C8.76437 36.4945 9.20953 36.2626 9.67325 36.105C10.3688 30.8093 12.4092 25.9403 15.4511 21.8504C14.5886 21.3032 13.893 20.4592 13.485 19.3927C13.1326 18.4838 13.1233 17.4358 13.4664 16.5269C14.0878 14.8854 15.3584 13.7447 16.9443 13.4015C18.7064 13.0213 20.5242 13.6797 21.6371 15.1451C21.7113 15.2378 21.7762 15.3491 21.8411 15.4511C25.9311 12.4092 30.8093 10.3688 36.105 9.67325C36.6243 8.15226 38.0062 6.99298 39.6385 6.81677C41.1038 6.64983 42.4857 7.20629 43.4409 8.36557C43.7655 8.75509 44.0067 9.20953 44.1643 9.69179C49.4136 10.3874 54.2455 12.3813 58.3169 15.3862L15.3862 58.3169C12.3906 54.2455 10.3874 49.4043 9.69179 44.1643ZM71.8666 43.4595C71.4864 43.7655 71.0505 44.0067 70.5775 44.155C69.8819 49.4507 67.8416 54.3197 64.7996 58.4096C65.6621 58.9568 66.3577 59.8008 66.7658 60.8673C67.1182 61.7762 67.1275 62.8242 66.7843 63.7331C66.1629 65.3746 64.8923 66.5153 63.3064 66.8585C61.5443 67.2387 59.7266 66.5803 58.6137 65.1149C58.5395 65.0222 58.4838 64.9109 58.4189 64.8089C54.3289 67.8508 49.4507 69.8912 44.155 70.5868C43.6357 72.1077 42.2538 73.267 40.6215 73.4432C39.1562 73.6102 37.7651 73.0444 36.8098 71.8759C36.4945 71.4864 36.2533 71.0412 36.0957 70.5682C30.8464 69.8726 26.0145 67.8787 21.9431 64.8738L64.8738 21.9431C67.8694 26.0145 69.8726 30.8557 70.5682 36.0957C72.0985 36.6058 73.2578 37.9969 73.4432 39.6292C73.6102 41.0945 73.0444 42.4949 71.8666 43.4502V43.4595Z" fill="#DEFF4F"/>
<path d="M13.7725 43.3853C15.2193 42.1703 17.1483 41.5026 19.2258 41.5026H21.2012C22.1657 41.5026 23.0097 42.1889 23.1766 43.1441C23.1952 43.2276 23.2044 43.3111 23.223 43.4038C23.5012 44.8599 22.1379 46.1397 20.7189 45.7131C20.7004 45.7131 20.6818 45.7038 20.654 45.6946C19.5782 45.3514 18.4374 45.6204 17.5471 46.4458C16.935 47.0208 16.6104 47.8462 16.6568 48.6809C16.7403 50.137 17.6584 51.2684 19.0403 51.6116C19.4298 51.7043 19.8379 51.7229 20.2274 51.6487C21.1734 51.4725 21.9431 50.9345 22.3976 50.137C22.4347 50.072 22.4718 49.9978 22.5181 49.9329C23.0004 49.1353 23.8907 48.8293 24.6976 49.024L31.5698 42.1518C30.6331 41.7623 29.8819 40.9647 29.613 39.9074C29.1585 38.1268 30.2436 36.3183 32.0243 35.8638C33.6473 35.4558 35.2796 36.3183 35.9009 37.8207L49.024 24.6976C48.8386 23.8907 49.1353 23.0004 49.9329 22.5181C49.9978 22.481 50.072 22.4347 50.137 22.3976C50.9345 21.9431 51.4725 21.1826 51.6487 20.2367C51.7229 19.8471 51.7136 19.4483 51.6116 19.0588C51.3333 17.9181 50.5265 17.0927 49.4414 16.7773C48.1244 16.3971 46.6684 16.9814 45.9821 18.1499C45.5276 18.9197 45.4256 19.81 45.6853 20.6447C45.6853 20.6633 45.6946 20.6818 45.7038 20.7096C46.1305 22.1286 44.8599 23.4919 43.3946 23.2137C43.3111 23.1952 43.2276 23.1859 43.1349 23.1673C42.1796 23.0004 41.4933 22.1657 41.4933 21.1919V19.0959C41.4933 17.1947 42.1796 15.312 43.478 13.6426C44.22 12.6967 44.5167 11.5096 44.3034 10.2761C44.1829 9.5805 43.8768 8.92203 43.4316 8.37485C42.4764 7.21556 41.0853 6.6591 39.6292 6.82604C37.7465 7.03935 36.1884 8.55106 35.9195 10.4152C35.7433 11.6487 36.0771 12.8358 36.8655 13.7725C38.0804 15.2193 38.7481 17.1483 38.7481 19.2165V21.1919C38.7481 22.1564 38.0618 23.0004 37.1066 23.1673C37.0231 23.1859 36.9396 23.1952 36.8469 23.2137C35.3908 23.4919 34.111 22.1286 34.5376 20.7096C34.5376 20.6911 34.5469 20.6726 34.5562 20.6447C34.8993 19.5689 34.6304 18.4189 33.8049 17.5378C33.2299 16.9257 32.4045 16.6011 31.5698 16.6475C30.1138 16.731 28.9916 17.6584 28.6392 19.0403C28.5464 19.4298 28.5279 19.8379 28.6021 20.2274C28.7783 21.1734 29.3162 21.9431 30.1138 22.3976C30.1787 22.4347 30.2529 22.4718 30.3178 22.5181C31.5698 23.2786 31.6162 25.0686 30.4013 25.9032C30.392 25.9032 30.3827 25.9218 30.3642 25.9311C29.5666 26.4783 28.5 26.3762 27.8138 25.6899L25.2262 23.1024C23.7331 21.6093 22.7964 19.6338 22.5089 17.3802C22.4068 16.5826 22.1101 15.8035 21.6185 15.1636C20.5056 13.6983 18.6879 13.0398 16.9257 13.4201C15.3306 13.7632 14.06 14.9039 13.4479 16.5455C13.1047 17.4544 13.114 18.4931 13.4664 19.4112C14.1713 21.2383 15.683 22.4161 17.51 22.5738C19.5225 22.75 21.498 23.7052 23.0746 25.2819L25.6621 27.8694C26.3391 28.5464 26.4504 29.6222 25.9032 30.4198C25.9032 30.4291 25.8847 30.4384 25.8754 30.4569C25.05 31.6626 23.2508 31.6255 22.4903 30.3735C22.4532 30.3085 22.4068 30.2343 22.3697 30.1694C21.9153 29.3718 21.1548 28.8246 20.2088 28.6577C19.8193 28.5835 19.4112 28.6021 19.0217 28.6948C17.6306 29.038 16.7124 30.1694 16.629 31.6255C16.5826 32.4602 16.9165 33.2856 17.5193 33.8606C18.4003 34.686 19.5504 34.9457 20.6262 34.6118C20.6447 34.6118 20.6633 34.6025 20.6911 34.5933C22.1101 34.1574 23.4827 35.4372 23.1952 36.9026C23.1766 36.986 23.1673 37.0695 23.1488 37.1622C22.9818 38.1175 22.1472 38.8038 21.1734 38.8038H19.0774C17.1761 38.8038 15.2935 38.1175 13.6241 36.8191C12.6781 36.0864 11.5003 35.7896 10.2761 35.9937C9.5805 36.1142 8.92203 36.411 8.37485 36.8562C7.20629 37.8114 6.64055 39.2118 6.80749 40.6772C7.0208 42.5599 8.53251 44.1179 10.3966 44.3869C11.6301 44.5631 12.8172 44.2292 13.7539 43.4409L13.7725 43.3853ZM36.8191 29.8263C37.7372 29.8263 38.4792 30.5682 38.4792 31.4864C38.4792 32.4045 37.7372 33.1465 36.8191 33.1465C35.9009 33.1465 35.159 32.4045 35.159 31.4864C35.159 30.5682 35.9009 29.8263 36.8191 29.8263Z" fill="white"/>
<path d="M65.6343 21.1826L65.6065 21.2105C65.6065 21.2105 65.625 21.1919 65.6343 21.1826Z" fill="white"/>
<path d="M14.6164 59.0866L14.6535 59.0495C14.6535 59.0495 14.6257 59.0774 14.6164 59.0866Z" fill="white"/>
<path d="M73.4432 39.6385C73.2299 37.7558 71.7182 36.1977 69.8541 35.9287C68.6206 35.7525 67.4335 36.0864 66.4968 36.8747C65.05 38.0897 63.121 38.7574 61.0528 38.7574H59.0774C58.1128 38.7574 57.2689 38.0711 57.1019 37.1159C57.0834 37.0324 57.0741 36.9489 57.0556 36.8562C56.7773 35.4001 58.1407 34.1203 59.5596 34.5469C59.5782 34.5469 59.5967 34.5562 59.6246 34.5654C60.7004 34.8993 61.8411 34.6396 62.7314 33.8142C63.3435 33.2392 63.6774 32.4138 63.6218 31.5791C63.5383 30.123 62.6109 29.0009 61.229 28.6484C60.8395 28.5557 60.4314 28.5371 60.0419 28.6113C59.0959 28.7875 58.3262 29.3255 57.8717 30.123C57.8346 30.188 57.7975 30.2622 57.7511 30.3271C57.2689 31.1247 56.3786 31.4214 55.5717 31.236L40.6123 46.1954C40.6586 46.3067 40.705 46.418 40.7328 46.5385C41.0482 47.7813 40.2969 49.0519 39.0542 49.3672C38.5348 49.497 38.0247 49.4414 37.5703 49.2466L31.2545 55.5624C31.44 56.3693 31.1339 57.2596 30.3456 57.7419C30.2807 57.779 30.2065 57.8253 30.1416 57.8624C29.344 58.3169 28.7968 59.0774 28.6299 60.0326C28.5557 60.4221 28.5742 60.8302 28.667 61.2197C29.0101 62.6016 30.1416 63.529 31.5977 63.6125C32.4323 63.6589 33.267 63.3343 33.8328 62.7222C34.6582 61.8411 34.9271 60.6911 34.584 59.6153C34.584 59.5967 34.5747 59.5782 34.5654 59.5504C34.1295 58.1314 35.4094 56.7681 36.8747 57.0463C36.9582 57.0648 37.0417 57.0741 37.1344 57.0927C38.0897 57.2596 38.776 58.0943 38.776 59.0681V61.1641C38.776 63.0653 38.0897 64.948 36.7913 66.6174C36.0586 67.5633 35.7525 68.7412 35.9658 69.9747C36.0864 70.6702 36.3832 71.3287 36.8284 71.8759C37.7836 73.0444 39.1748 73.6009 40.6401 73.4432C42.5228 73.2299 44.0808 71.7182 44.3498 69.8541C44.526 68.6206 44.1921 67.4335 43.4038 66.4968C42.1889 65.05 41.5211 63.121 41.5211 61.0528V59.0774C41.5211 58.1128 42.2074 57.2689 43.1627 57.1019C43.2462 57.0834 43.3296 57.0741 43.4224 57.0556C44.8784 56.7773 46.1583 58.1407 45.7317 59.5596C45.7317 59.5782 45.7224 59.5967 45.7131 59.6246C45.3792 60.7004 45.6389 61.8411 46.4643 62.7314C47.0393 63.3435 47.8648 63.6774 48.6994 63.6218C50.1555 63.5383 51.287 62.6109 51.6301 61.2197C51.7229 60.8302 51.7414 60.4221 51.6672 60.0326C51.491 59.0866 50.9531 58.3262 50.1555 57.881C50.0906 57.8439 50.0164 57.8068 49.9515 57.7604C48.6994 56.9999 48.6531 55.21 49.868 54.3753C49.8773 54.3753 49.8958 54.3568 49.9051 54.3475C50.7027 53.8003 51.7692 53.9023 52.4555 54.5886L55.0431 57.1761C56.5362 58.6693 57.4729 60.6447 57.7604 62.8984C57.8624 63.696 58.1592 64.475 58.6507 65.1149C59.7637 66.5803 61.5814 67.2387 63.3435 66.8585C64.9387 66.5153 66.2093 65.3746 66.8214 63.7331C67.1646 62.8242 67.1553 61.7855 66.8028 60.8673C66.098 59.0403 64.5863 57.8624 62.7593 57.7048C60.7467 57.5286 58.7713 56.5733 57.1947 54.9967L54.6072 52.4092C53.9301 51.7321 53.8189 50.6563 54.366 49.8587C54.366 49.8495 54.3846 49.8309 54.3939 49.8216C55.21 48.6345 56.9907 48.6345 57.7419 49.8587C57.7882 49.9422 57.8439 50.0257 57.8903 50.1091C57.9737 50.2575 58.0665 50.4059 58.1778 50.545C59.1423 51.6858 60.6725 51.9547 61.8968 51.3612C62.9169 50.8696 63.5847 49.8773 63.6496 48.6531C63.696 47.8184 63.3621 46.9837 62.7407 46.4087C61.8597 45.5926 60.7189 45.3329 59.6431 45.6668C59.6246 45.6668 59.606 45.676 59.5782 45.6853C58.1592 46.1119 56.7959 44.8413 57.0741 43.376C57.0927 43.2925 57.1019 43.2091 57.1205 43.1163C57.2874 42.1611 58.1221 41.4748 59.0959 41.4748H61.1919C63.0931 41.4748 64.9758 42.1611 66.6452 43.4595C67.5912 44.1921 68.769 44.4889 69.9932 44.2942C70.6888 44.1829 71.3473 43.8768 71.8944 43.4316C73.0723 42.4764 73.638 41.076 73.4711 39.6106L73.4432 39.6385ZM47.197 47.6978C46.418 47.6978 45.7873 47.0672 45.7873 46.2881C45.7873 45.5091 46.418 44.8784 47.197 44.8784C47.9761 44.8784 48.6067 45.5091 48.6067 46.2881C48.6067 47.0672 47.9761 47.6978 47.197 47.6978Z" fill="white"/>
</svg>
