<svg width="301" height="46" viewBox="0 0 301 46" fill="none" xmlns="http://www.w3.org/2000/svg">
<path d="M10.022 15.01H14.222V27.4H22.112V31.47H10.022V15.01Z" fill="white"/>
<path d="M33.582 15.01V31.47H29.362V15.01H33.582Z" fill="white"/>
<path d="M41.812 31.47V15.01H46.052L50.802 25.41L55.572 15.01H59.812V31.47H55.612V23.72L52.192 30.83H49.432L46.012 23.72V31.47H41.812Z" fill="white"/>
<path d="M68.042 15.01H75.302C77.372 15.01 78.962 15.62 80.082 16.84C81.202 18.06 81.762 19.55 81.762 21.32C81.762 23.09 81.202 24.69 80.092 25.91C78.982 27.13 77.382 27.74 75.302 27.74H72.262V31.48H68.042V15.01ZM72.262 18.85V23.89H75.072C76.692 23.89 77.502 23.04 77.502 21.34C77.502 20.62 77.302 20.03 76.912 19.56C76.522 19.09 75.902 18.85 75.072 18.85H72.262Z" fill="white"/>
<path d="M89.082 15.01H101.722V19.1H93.302V21.46H100.222V25.28H93.302V27.39H101.722V31.46H89.082V15.01Z" fill="white"/>
<path d="M109.102 15.01H122.802V18.09L115.122 27.4H122.822V31.47H108.852V28.39L116.512 19.1H109.102V15.01Z" fill="white"/>
<path d="M140.132 15.01L146.782 31.47H142.182L141.272 29.06H134.792L133.882 31.47H129.282L135.952 15.01H140.132ZM138.042 20.41L136.222 25.24H139.832L138.042 20.41Z" fill="white"/>
<path d="M279.962 18.77C278.722 18.77 277.672 19.21 276.792 20.08C275.912 20.95 275.482 22.01 275.482 23.24C275.482 24.47 275.922 25.53 276.792 26.41C277.662 27.28 278.722 27.72 279.962 27.72C281.202 27.72 282.292 27.29 283.152 26.42C284.012 25.55 284.442 24.49 284.442 23.24C284.442 21.99 284.012 20.93 283.152 20.06C282.292 19.2 281.232 18.76 279.962 18.76V18.77Z" fill="#DEFF4F"/>
<path d="M180.482 25.24H184.092L182.292 20.41L180.482 25.24Z" fill="#DEFF4F"/>
<path d="M0.112 0V46H300.112V0H0.112ZM180.582 7.85L186.072 11.76L184.662 14.21L178.542 11.4L180.592 7.85H180.582ZM150.242 44H2.112V2H168.112L150.242 44ZM186.432 31.47L185.522 29.06H179.042L178.132 31.47H173.532L180.202 15.01H184.382L191.032 31.47H186.432ZM219.592 30.51C218.382 31.36 216.802 31.79 214.862 31.79C212.822 31.79 211.142 31.34 209.842 30.44C208.532 29.54 207.882 28.3 207.882 26.72V26.53H212.002V26.64C212.002 27.01 212.242 27.35 212.732 27.66C213.222 27.98 213.902 28.13 214.792 28.13C215.522 28.13 216.052 28.03 216.382 27.83C216.712 27.63 216.882 27.39 216.882 27.11C216.882 26.77 216.672 26.48 216.262 26.22C215.852 25.97 215.122 25.66 214.072 25.31C213.412 25.09 212.862 24.89 212.412 24.72C211.972 24.55 211.442 24.3 210.832 23.97C210.222 23.64 209.732 23.29 209.362 22.94C208.992 22.58 208.682 22.13 208.412 21.58C208.142 21.03 208.012 20.43 208.012 19.79C208.012 18.24 208.612 17 209.802 16.07C211.002 15.14 212.552 14.68 214.442 14.68C216.332 14.68 218.012 15.16 219.272 16.14C220.542 17.11 221.172 18.4 221.172 20V20.23H217.052V20.08C217.052 19.63 216.832 19.22 216.392 18.87C215.952 18.51 215.322 18.33 214.522 18.33C213.862 18.33 213.362 18.44 213.022 18.66C212.682 18.88 212.512 19.14 212.512 19.45C212.512 19.76 212.702 20.02 213.082 20.24C213.462 20.46 214.182 20.75 215.232 21.11C215.692 21.28 216.052 21.41 216.312 21.5C216.562 21.59 216.942 21.75 217.442 21.96C217.942 22.18 218.342 22.38 218.632 22.57C218.932 22.76 219.272 23.01 219.662 23.33C220.052 23.65 220.362 23.97 220.582 24.29C220.802 24.61 220.992 25 221.152 25.45C221.312 25.9 221.392 26.37 221.392 26.86C221.392 28.42 220.782 29.63 219.582 30.48L219.592 30.51ZM241.622 19.1H233.202V21.46H240.122V25.28H233.202V27.39H241.622V31.46H228.982V15.01H241.622V19.1ZM261.642 30.49C260.242 31.36 258.702 31.79 257.032 31.79C254.652 31.79 252.602 30.95 250.882 29.28C249.162 27.6 248.292 25.59 248.292 23.24C248.292 20.89 249.152 18.88 250.882 17.2C252.602 15.52 254.652 14.69 257.032 14.69C258.712 14.69 260.242 15.12 261.622 15.98C263.002 16.84 264.072 17.97 264.822 19.38L260.982 21.11C260.602 20.41 260.062 19.84 259.352 19.41C258.652 18.98 257.872 18.77 257.032 18.77C255.792 18.77 254.742 19.21 253.862 20.08C252.982 20.95 252.552 22.01 252.552 23.24C252.552 24.47 252.992 25.53 253.862 26.41C254.732 27.28 255.792 27.72 257.032 27.72C257.892 27.72 258.672 27.51 259.362 27.09C260.062 26.67 260.592 26.1 260.982 25.38L264.842 27.07C264.112 28.49 263.042 29.63 261.642 30.5V30.49ZM286.142 29.28C284.432 30.95 282.372 31.79 279.972 31.79C277.572 31.79 275.542 30.95 273.822 29.28C272.102 27.6 271.232 25.59 271.232 23.24C271.232 20.89 272.092 18.88 273.822 17.2C275.542 15.52 277.592 14.69 279.972 14.69C282.352 14.69 284.432 15.53 286.142 17.2C287.852 18.87 288.702 20.89 288.702 23.24C288.702 25.59 287.852 27.6 286.142 29.28Z" fill="#DEFF4F"/>
</svg>
