<svg width="350" height="64" viewBox="0 0 350 64" fill="none" xmlns="http://www.w3.org/2000/svg">
<path d="M40.9867 42.066C34.8605 41.4365 28.2764 41.0892 21.2346 41.0892L0 62.2307C0 62.2307 50.9717 46.0165 101.965 62.6432C101.965 62.6432 82.0169 46.2552 41.0085 42.066H40.9867Z" fill="#DEFF4F"/>
<path d="M101.42 40.069V17.2345H86.9223V21.3369L94.1821 32.6022L90.1053 28.413L62.5047 0L23.4801 38.8318C28.8869 38.9403 37.3676 39.114 43.6464 39.3745L62.5047 20.4252L124.639 63.9889L101.42 40.069Z" fill="white"/>
<path d="M127.604 21.6191V26.4595H121.499V41.0892H116.485V26.4595H110.381V21.6191H127.604Z" fill="white"/>
<path d="M130.176 21.6191H145.197V26.4595H135.191V29.2595H143.41V33.7743H135.191V36.2705H145.197V41.0892H130.176V21.6191Z" fill="white"/>
<path d="M148.38 21.6191H153.373V36.2705H162.748V41.0892H148.38V21.6191Z" fill="white"/>
<path d="M183.306 21.6191V41.0892H178.292V33.8395H170.313V41.0892H165.32V21.6191H170.313V29.1944H178.292V21.6191H183.306Z" fill="white"/>
<path d="M198.437 21.6191L206.329 41.0892H200.856L199.766 38.2458H192.071L191.002 41.0892H185.53L193.466 21.6191H198.437ZM195.951 28.0223L193.793 33.7309H198.088L195.951 28.0223Z" fill="white"/>
<path d="M208.596 21.6191H217.665C219.649 21.6191 221.328 22.0749 222.767 22.9648C224.184 23.8548 225.23 25.0269 225.906 26.4812C226.582 27.9355 226.931 29.5634 226.931 31.3433C226.931 33.1232 226.582 34.7945 225.906 36.2271C225.23 37.6814 224.184 38.8535 222.767 39.7435C221.35 40.6334 219.649 41.0892 217.665 41.0892H208.596V21.6191ZM213.61 36.2705H217.295C218.755 36.2705 219.867 35.8147 220.674 34.9248C221.459 34.0348 221.873 32.841 221.873 31.3433C221.873 29.8456 221.481 28.6518 220.674 27.7618C219.889 26.8719 218.755 26.4378 217.295 26.4378H213.61V36.2705Z" fill="white"/>
<path d="M231.989 24.2021C234.038 22.2268 236.48 21.2283 239.292 21.2283C242.105 21.2283 244.59 22.2268 246.639 24.2021C248.667 26.1773 249.692 28.5649 249.692 31.3433C249.692 34.1216 248.667 36.5093 246.639 38.4845C244.612 40.4598 242.17 41.4582 239.292 41.4582C236.415 41.4582 234.038 40.4598 231.989 38.4845C229.94 36.5093 228.915 34.1216 228.915 31.3433C228.915 28.5649 229.94 26.1773 231.989 24.2021ZM235.543 35.0984C236.589 36.1403 237.832 36.6395 239.314 36.6395C240.797 36.6395 242.083 36.1186 243.108 35.0984C244.132 34.0782 244.634 32.8193 244.634 31.3433C244.634 29.8673 244.132 28.6083 243.108 27.5882C242.083 26.568 240.818 26.0471 239.314 26.0471C237.81 26.0471 236.589 26.568 235.543 27.5882C234.496 28.6083 233.995 29.8673 233.995 31.3433C233.995 32.8193 234.518 34.0565 235.543 35.0984Z" fill="white"/>
<path d="M260.309 21.6191H265.301V36.2705H274.676V41.0892H260.309V21.6191Z" fill="white"/>
<path d="M282.285 21.6191V41.0892H277.27V21.6191H282.285Z" fill="white"/>
<path d="M286.035 41.0892V21.6191H291.071L296.717 33.9263L302.386 21.6191H307.422V41.0892H302.429V31.9293L298.374 40.3512H295.082L291.027 31.9293V41.0892H286.035Z" fill="white"/>
<path d="M311.194 21.6191H319.827C322.29 21.6191 324.187 22.3353 325.517 23.7896C326.847 25.2222 327.523 27.0021 327.523 29.0859C327.523 31.1696 326.869 33.0798 325.539 34.5123C324.209 35.9449 322.312 36.6829 319.849 36.6829H316.23V41.1109H311.215V21.6408L311.194 21.6191ZM316.208 26.1556V32.1247H319.543C321.462 32.1247 322.421 31.1262 322.421 29.1076C322.421 28.261 322.181 27.5448 321.724 27.0021C321.266 26.4595 320.525 26.1556 319.543 26.1556H316.208Z" fill="white"/>
<path d="M332.297 24.2021C334.347 22.2268 336.788 21.2283 339.601 21.2283C342.413 21.2283 344.898 22.2268 346.948 24.2021C348.975 26.1773 350 28.5649 350 31.3433C350 34.1216 348.975 36.5093 346.948 38.4845C344.92 40.4598 342.479 41.4582 339.601 41.4582C336.723 41.4582 334.347 40.4598 332.297 38.4845C330.248 36.5093 329.223 34.1216 329.223 31.3433C329.223 28.5649 330.248 26.1773 332.297 24.2021ZM335.851 35.0984C336.897 36.1403 338.14 36.6395 339.623 36.6395C341.105 36.6395 342.391 36.1186 343.416 35.0984C344.441 34.0782 344.942 32.8193 344.942 31.3433C344.942 29.8673 344.441 28.6083 343.416 27.5882C342.391 26.568 341.127 26.0471 339.623 26.0471C338.118 26.0471 336.897 26.568 335.851 27.5882C334.804 28.6083 334.303 29.8673 334.303 31.3433C334.303 32.8193 334.826 34.0565 335.851 35.0984Z" fill="white"/>
</svg>
