<svg width="105" height="16" viewBox="0 0 105 16" fill="white" xmlns="http://www.w3.org/2000/svg">
<path d="M0.583252 7.04635V5.97969L6.79992 1.77969V3.11302L1.79992 6.47969V6.54635L6.79992 9.91302V11.2464L0.583252 7.04635Z" fill="#DEFF4F"/>
<path d="M10.3499 9.47969C10.3499 9.14635 10.3833 8.77969 10.4833 8.37969L11.8499 2.51302H9.61658L10.0499 0.446354H14.9166L13.0499 8.74635C13.0166 8.87969 12.9833 9.04635 12.9833 9.31302C12.9833 9.84636 13.3833 10.0797 13.8499 10.0797C14.3166 10.0797 14.6166 9.97969 15.1499 9.74635L15.6833 11.713C14.7833 12.113 13.9833 12.2464 13.0166 12.2464C11.4499 12.2464 10.3499 11.213 10.3499 9.47969Z" fill="#white"/>
<path d="M15.0833 14.7464L15.8166 12.9464C16.0833 13.0797 16.5499 13.213 16.8833 13.213C17.7166 13.213 18.2499 12.913 18.5833 12.3464L18.7999 11.9797L16.9833 3.71302H19.5499L20.0833 6.94635C20.2166 7.77969 20.3499 8.91302 20.4166 9.61302H20.4832C20.7832 8.91302 21.3166 7.77969 21.7499 6.94635L23.4166 3.71302H26.1166L21.3833 12.0464C20.1499 14.213 18.7499 15.1797 16.7166 15.1797C16.0833 15.1797 15.4166 14.9797 15.0833 14.7464Z" fill="#white"/>
<path d="M26.7166 3.71302H28.8832L28.8999 4.84635H28.9499C29.7499 4.01302 30.5833 3.51302 31.5833 3.51302C33.2499 3.51302 34.2499 4.67969 34.2499 6.74635C34.2499 9.81302 32.4833 12.2464 29.8166 12.2464C28.9833 12.2464 28.1832 11.913 27.7499 11.3464H27.7166L27.5166 12.913L27.1166 14.9797H24.4499L26.7166 3.71302ZM31.4833 7.07969C31.4833 6.09635 31.0499 5.67969 30.4833 5.67969C29.9499 5.67969 29.3499 6.01302 28.7833 6.94635L28.2499 9.44635C28.4833 9.87969 29.0499 10.0797 29.5166 10.0797C30.5666 10.0797 31.4833 8.84635 31.4833 7.07969Z" fill="#white"/>
<path d="M35.7166 3.71302H37.8833L37.8999 4.84635H37.9499C38.7499 4.01302 39.5833 3.51302 40.5833 3.51302C42.2499 3.51302 43.2499 4.67969 43.2499 6.74635C43.2499 9.81302 41.4833 12.2464 38.8166 12.2464C37.9833 12.2464 37.1833 11.913 36.7499 11.3464H36.7166L36.5166 12.913L36.1166 14.9797H33.4499L35.7166 3.71302ZM40.4832 7.07969C40.4832 6.09635 40.0499 5.67969 39.4832 5.67969C38.9499 5.67969 38.3499 6.01302 37.7832 6.94635L37.2499 9.44635C37.4832 9.87969 38.0499 10.0797 38.5166 10.0797C39.5666 10.0797 40.4832 8.84635 40.4832 7.07969Z" fill="#white"/>
<path d="M43.5832 8.51302C43.5832 5.51302 45.8832 3.51302 48.4499 3.51302C50.6499 3.51302 51.9166 4.84635 51.9166 6.81302C51.9166 7.54635 51.7166 8.34635 51.6166 8.64635H45.5666L45.8499 6.97969H50.0833L49.3833 7.36302C49.4333 7.17969 49.4832 6.96302 49.4832 6.76302C49.4832 5.94635 49.0499 5.54635 48.3833 5.54635C47.5166 5.54635 46.2499 6.37969 46.2499 8.41302C46.2499 9.84635 47.0832 10.213 47.9832 10.213C48.8832 10.213 49.5833 9.87969 50.3499 9.41302L51.2166 11.1797C50.1832 11.8797 48.8499 12.2464 47.3499 12.2464C45.2166 12.2464 43.5832 11.113 43.5832 8.51302Z" fill="#white"/>
<path d="M55.5666 10.8297C55.5666 9.99635 56.1666 9.41302 56.9166 9.41302C57.6666 9.41302 58.2666 9.99635 58.2666 10.8297C58.2666 11.663 57.6666 12.2464 56.9166 12.2464C56.1666 12.2464 55.5666 11.6797 55.5666 10.8297Z" fill="#white"/>
<path d="M61.9166 8.01302C61.9166 5.37969 63.6666 3.74635 65.5833 3.74635C66.5499 3.74635 67.2999 4.12969 68.0166 4.77969H68.0499L67.9832 3.29635V0.179688H69.3666V12.0464H68.2333L68.1166 10.9797H68.0666C67.3999 11.663 66.4333 12.2464 65.4166 12.2464C63.3166 12.2464 61.9166 10.713 61.9166 8.01302ZM67.9832 9.87969V5.84635C67.2499 5.16302 66.5666 4.91302 65.8666 4.91302C64.4666 4.91302 63.3333 6.14635 63.3333 7.99635C63.3333 9.84635 64.2333 11.0797 65.7166 11.0797C66.5166 11.0797 67.2666 10.6797 67.9832 9.87969Z" fill="#white"/>
<path d="M71.0499 7.97969C71.0499 5.34635 73.0166 3.74635 75.1832 3.74635C77.5166 3.74635 78.8832 5.26302 78.8832 7.54635C78.8832 7.86302 78.8499 8.16302 78.8166 8.37969H71.9666V7.31302H77.9999L77.6499 7.69635C77.6499 5.77969 76.6999 4.82969 75.2166 4.82969C73.7332 4.82969 72.4166 5.96302 72.4166 7.97969C72.4166 9.99635 73.7832 11.1464 75.5832 11.1464C76.5499 11.1464 77.3166 10.8464 78.0499 10.3797L78.5499 11.2797C77.7499 11.813 76.7166 12.2464 75.4166 12.2464C72.9832 12.2464 71.0499 10.6797 71.0499 7.97969Z" fill="#white"/>
<path d="M79.7499 3.94635H81.1666L83.0332 8.52969C83.3499 9.34635 83.6499 10.1464 83.9332 10.9297H83.9999C84.2832 10.1464 84.5499 9.34635 84.8833 8.52969L86.7499 3.94635H88.0833L84.7166 12.0464H83.1666L79.7499 3.94635Z" fill="#white"/>
<path d="M95.0332 0.213021H96.2666L90.7999 14.713H89.5666L95.0332 0.213021Z" fill="#white"/>
<path d="M98.6999 9.91302L103.7 6.54635V6.47969L98.6999 3.11302V1.77969L104.917 5.97969V7.04635L98.6999 11.2464V9.91302Z" fill="#DEFF4F"/>
</svg>
