<svg width="68" height="28" viewBox="0 0 68 28" fill="none" xmlns="http://www.w3.org/2000/svg">
<path d="M0.189302 20.4577C-0.0811295 24.5349 2.59614 27.0191 7.38278 27.0191C11.1959 27.0191 14.9549 25.399 14.9549 21.0787C14.9549 20.3496 14.7926 18.4595 12.3317 17.0554C13.8731 15.9484 14.7385 14.3012 14.7656 12.6271C14.8196 11.4391 14.4681 10.116 13.4945 9.03589L15.2253 6.98375L11.6286 4.41858C11.1959 4.98562 10.655 5.66067 10.1953 6.25471C9.30284 5.93068 8.35633 5.74167 7.43687 5.74167C3.29926 5.74167 0 8.38785 0 12.5731C0 16.7044 2.9477 19.2966 7.43687 19.2966C9.24876 19.2966 9.84371 20.1066 9.84371 21.0787C9.84371 22.3748 8.68085 22.9958 7.38278 22.9958C6.05766 22.9958 4.81368 22.5368 4.86777 20.4577H0.189302ZM7.43687 9.81894C8.8972 9.81894 9.95188 11.061 9.95188 12.5731C9.95188 14.3552 8.76198 15.1923 7.43687 15.1923C5.97654 15.1923 4.84072 14.1662 4.84072 12.5731C4.84072 10.791 5.97654 9.81894 7.43687 9.81894Z" fill="#3A3A3A"/>
<path d="M15.7454 6.1737V19.5126H20.7214V12.5731C20.7214 10.818 21.7761 10.062 23.0201 10.062C23.8584 10.062 24.4533 10.224 25.2646 10.872L27.2658 7.28078C26.4005 6.36271 25.1024 5.84968 23.7502 5.84968C22.4521 5.84968 21.2082 6.38971 20.505 7.6318L20.2076 6.1737H15.7454Z" fill="#3A3A3A"/>
<path d="M33.4312 5.87668C29.5641 5.87668 25.8051 7.92882 25.8051 12.8701C25.8051 17.7305 29.5911 19.8366 33.4312 19.8366C37.1902 19.8366 41.0574 17.7305 41.0574 12.8701C41.0574 8.00982 37.3795 5.87668 33.4312 5.87668ZM33.4312 15.7593C31.6734 15.7593 30.6728 14.4093 30.6728 12.8701C30.6728 11.331 31.6734 9.95395 33.4312 9.95395C35.1891 9.95395 36.1896 11.331 36.1896 12.8701C36.1896 14.4903 35.1079 15.7593 33.4312 15.7593Z" fill="#3A3A3A"/>
<path d="M49.6428 6.1737L47.29 13.5992L46.2624 9.84595L44.9913 6.1737H39.7991L44.6668 19.5936H49.2912L51.1301 14.5443L52.9961 19.5936H57.5664L62.4612 6.1737H57.2419L55.9979 9.81894L54.9973 13.5992L52.6446 6.1737H49.6428Z" fill="#3A3A3A"/>
<path d="M67.6788 13.3022L67.787 0.611328H62.5407L62.6218 13.3022H67.6788ZM65.1098 19.6476C68.9769 19.6476 68.9499 14.3552 65.1098 14.3552C61.3237 14.3552 61.3237 19.6476 65.1098 19.6476Z" fill="#3A3A3A"/>
</svg>
