<svg width="150" height="151" viewBox="0 0 150 151" fill="none" xmlns="http://www.w3.org/2000/svg">
<path d="M36.1906 36.4506V0.26001H0V36.4506H36.1906ZM5.17459 5.4346H31.016V31.276H5.17459V5.4346Z" fill="black"/>
<path d="M5.17459 57.1489V46.7998H15.5238V51.9744H20.6668V46.7998H25.8414V41.6252H0V62.292H10.3492V57.1489H5.17459Z" fill="black"/>
<path d="M10.3492 93.3395H5.17459V108.863H10.3492V93.3395Z" fill="black"/>
<path d="M15.5238 62.292H10.3492V67.4666H15.5238V62.292Z" fill="black"/>
<path d="M25.8414 26.1014V10.6092H10.3492V26.1014H25.8414Z" fill="black"/>
<path d="M15.5238 77.8158V72.6412H10.3492V67.4666H0V72.6412H5.17459V88.1649H10.3492V93.3395H15.5238V88.1649H20.6668V82.9903H25.8414V77.8158H15.5238Z" fill="black"/>
<path d="M20.6984 103.657H15.5238V108.832H20.6984V103.657Z" fill="black"/>
<path d="M10.3492 124.356V139.848H25.8414V124.356H10.3492Z" fill="black"/>
<path d="M25.8414 88.1649H20.6668V93.3395H25.8414V88.1649Z" fill="black"/>
<path d="M0 114.006V150.197H36.1906V114.006H0ZM31.016 145.022H5.17459V119.181H31.016V145.022Z" fill="black"/>
<path d="M36.1906 82.9903H31.016V88.1649H36.1906V82.9903Z" fill="black"/>
<path d="M36.1906 103.657H31.016V108.832H36.1906V103.657Z" fill="black"/>
<path d="M46.5398 26.1014H41.3652V36.4506H46.5398V26.1014Z" fill="black"/>
<path d="M41.3652 88.1649V93.3395H31.016V98.4826H36.1906V103.657H41.3652V98.4826H46.5398V88.1649H41.3652Z" fill="black"/>
<path d="M51.7143 72.6412H46.5398V88.1649H51.7143V72.6412Z" fill="black"/>
<path d="M56.8889 20.9268H51.7143V36.4506H56.8889V20.9268Z" fill="black"/>
<path d="M56.8889 62.292V57.1174H51.7143V46.7682H56.8889V41.5936H31.0475V46.7682H36.2221V51.9428H31.0475V46.7682H25.8729V57.1174H20.6984V72.6412H25.8729V77.8158H36.2221V82.9903H41.3967V57.1489H46.5713V67.4981H51.7459V62.3235H56.9205L56.8889 62.292ZM36.2221 62.292H31.0475V67.4666H36.2221V72.6412H31.0475V67.4666H25.8729V62.292H31.0475V57.1174H36.2221V62.292Z" fill="black"/>
<path d="M77.5557 114.006V108.832H72.3812V103.657H67.2066V108.832H56.8889V103.657H62.032V98.4826H56.8889V93.3395H51.7143V98.4826H46.5398V108.832H41.3652V119.181H51.7143V114.006H77.5557Z" fill="black"/>
<path d="M56.8889 46.7998V51.9744H67.2066V46.7998H56.8889Z" fill="black"/>
<path d="M67.2066 72.6412V67.4666H51.7143V72.6412H67.2066Z" fill="black"/>
<path d="M62.0635 77.8158H56.8889V82.9903H62.0635V77.8158Z" fill="black"/>
<path d="M62.032 124.356V119.181H51.7143V124.356H41.3652V150.197H56.8889V145.022H51.7143V139.848H46.5398V134.673H51.7143V129.53H56.8889V124.356H62.032Z" fill="black"/>
<path d="M56.8889 129.53V134.673H67.2066V129.53H56.8889Z" fill="black"/>
<path d="M62.0635 139.848H56.8889V145.022H62.0635V139.848Z" fill="black"/>
<path d="M67.2066 41.6252V20.9268H72.3812V15.7838H62.032V10.6092H67.2066V5.4346H56.8889V10.6092H51.7143V0.26001H46.5398V5.4346H41.3652V10.6092H46.5398V15.7838H41.3652V20.9268H51.7143V15.7838H56.8889V20.9268H62.032V36.4506H56.8889V41.6252H67.2066Z" fill="black"/>
<path d="M67.2066 57.1489H62.032V62.3235H67.2066V57.1489Z" fill="black"/>
<path d="M67.2066 93.3395H77.5557V88.1649H72.3812V82.9903H67.2066V88.1649H56.8889V93.3395H62.032V98.4826H67.2066V93.3395Z" fill="black"/>
<path d="M72.3812 41.6252H67.2066V46.7998H72.3812V41.6252Z" fill="black"/>
<path d="M72.3812 62.292H67.2066V67.4666H72.3812V62.292Z" fill="black"/>
<path d="M72.3812 124.356H67.2066V129.53H72.3812V124.356Z" fill="black"/>
<path d="M72.3812 145.022H67.2066V150.197H72.3812V145.022Z" fill="black"/>
<path d="M77.5557 67.4666H72.3812V72.6412H77.5557V67.4666Z" fill="black"/>
<path d="M77.5557 77.8158H72.3812V82.9903H77.5557V77.8158Z" fill="black"/>
<path d="M82.7303 15.7838V20.9268H87.9049V26.1014H108.572V20.9268H93.0795V15.7838H87.9049V10.6092H93.0795V5.4346H103.397V10.6092H108.572V0.26001H87.9049V5.4346H77.5557V0.26001H72.3812V15.7838H82.7303Z" fill="black"/>
<path d="M77.5557 26.1014V20.9268H72.3812V41.5936H77.5557V46.7682H82.7303V41.5936H87.9049V26.0699H77.5557V26.1014ZM82.7303 36.4506H77.5557V31.276H82.7303V36.4506Z" fill="black"/>
<path d="M77.5557 51.9744V46.7998H72.3812V57.1489H82.7303V51.9744H77.5557Z" fill="black"/>
<path d="M82.7303 103.657V93.3395H77.5557V98.4826H72.3812V103.657H82.7303Z" fill="black"/>
<path d="M82.7303 46.7998V51.9744H87.9049V57.1489H93.0795V51.9744H103.397V41.6252H108.572V31.276H103.397V36.4506H98.2225V41.6252H87.9049V46.7998H82.7303Z" fill="black"/>
<path d="M87.9049 57.1489H82.7303V62.3235H87.9049V57.1489Z" fill="black"/>
<path d="M82.7303 72.6412H77.5557V77.8158H82.7303V82.9903H87.9049V77.8158H98.2225V72.6412H87.9049V67.4666H82.7303V72.6412Z" fill="black"/>
<path d="M87.9049 88.1649H82.7303V93.3395H87.9049V88.1649Z" fill="black"/>
<path d="M93.0795 62.292H87.9049V67.4666H93.0795V62.292Z" fill="black"/>
<path d="M93.0795 82.9903H87.9049V88.1649H93.0795V82.9903Z" fill="black"/>
<path d="M82.7303 124.356V114.006H77.5557V129.53H82.7303V134.673H77.5557V129.53H72.3812V139.848H82.7303V150.197H103.397V145.022H108.572V139.848H93.0795V145.022H87.9049V129.53H93.0795V124.356H82.7303Z" fill="black"/>
<path d="M98.2541 31.276H93.0795V36.4506H98.2541V31.276Z" fill="black"/>
<path d="M93.0795 108.832V103.657H87.9049V108.832H82.7303V114.006H87.9049V119.181H93.0795V114.006H98.2225V108.832H93.0795Z" fill="black"/>
<path d="M103.397 10.6092H98.2225V15.7838H103.397V10.6092Z" fill="black"/>
<path d="M108.572 72.6412V82.9903H113.746V77.8158H139.588V72.6412H129.27V67.4666H124.096V72.6412H118.921V67.4666H108.572V62.292H103.397V67.4666H98.2225V72.6412H108.572Z" fill="black"/>
<path d="M113.746 41.6252H108.572V46.7998H113.746V41.6252Z" fill="black"/>
<path d="M113.746 145.022H108.572V150.197H113.746V145.022Z" fill="black"/>
<path d="M129.27 51.9744V46.7998H124.096V41.6252H118.921V46.7998H113.746V51.9744H129.27Z" fill="black"/>
<path d="M113.746 57.1489V62.292H124.096V57.1489H113.746Z" fill="black"/>
<path d="M118.921 114.006H113.746V119.181H118.921V114.006Z" fill="black"/>
<path d="M124.096 10.6092V26.1014H139.588V10.6092H124.096Z" fill="black"/>
<path d="M134.445 41.6252H129.27V46.7998H134.445V41.6252Z" fill="black"/>
<path d="M129.27 82.9903V88.1649H134.445V98.4826H139.588V82.9903H129.27Z" fill="black"/>
<path d="M139.588 67.4666V62.292H134.445V57.1489H129.27V67.4666H139.588Z" fill="black"/>
<path d="M139.619 145.022H134.445V150.197H139.619V145.022Z" fill="black"/>
<path d="M144.762 41.6252H139.588V46.7998H144.762V41.6252Z" fill="black"/>
<path d="M144.762 57.1489H139.588V62.3235H144.762V57.1489Z" fill="black"/>
<path d="M144.762 77.8158H139.588V82.9903H144.762V77.8158Z" fill="black"/>
<path d="M144.762 98.4826H139.588V103.657H134.413V108.832H129.239V88.1649H108.572V82.9903H103.397V88.1649H93.048V93.3395H103.397V98.5141H113.746V93.3395H124.096V103.689H103.429V114.038H98.2541V119.212H93.0795V124.387H103.429V129.562H93.0795V134.736H108.603V129.562H118.952V134.736H113.778V139.911H118.952V145.085H124.127V150.26H129.302V145.085H134.476V139.911H139.651V145.085H144.825V134.736H139.651V129.562H144.825V124.387H134.476V129.562H129.302V134.736H124.127V129.562H129.302V119.212H139.651V114.038H150V103.689H144.825V98.5141L144.762 98.4826ZM124.096 124.324H108.572V108.8H124.096V124.324Z" fill="black"/>
<path d="M113.746 0.26001V36.4506H149.937V0.26001H113.746ZM144.762 31.276H118.921V5.4346H144.762V31.276Z" fill="black"/>
<path d="M149.937 46.7998H144.762V51.9744H149.937V46.7998Z" fill="black"/>
<path d="M149.937 67.4666H144.762V72.6412H149.937V67.4666Z" fill="black"/>
<path d="M149.937 88.1649H144.762V93.3395H149.937V88.1649Z" fill="black"/>
<path d="M149.937 129.53H144.762V134.705H149.937V129.53Z" fill="black"/>
</svg>
